<svg xmlns="http://www.w3.org/2000/svg" width="1359.4727pt" height="376.36273pt" viewBox="0 0 1359.4727 376.36273"><path fill="#fff" d="M-113.75 906.022c71.458 0 129.376-57.928 129.376-129.375 0-71.458-57.918-129.375-129.375-129.375-71.448 0-129.375 57.917-129.375 129.375 0 71.447 57.927 129.375 129.375 129.375" style="stroke-width:10.2111" transform="translate(337.215 -588.465)"/><path fill="#5b5c5e" d="M103.057 742.062 72.25 785.183l11.62 7.71 25.345-35.566 25.21 35.28 11.621-7.7-30.664-42.845h27.723v-13.163h-25.762v-13.305h-16.39V728.9H74.916v13.163zm46.767 71.13h-32.9v-28.99h-15.123v28.99H68.758v13.295h81.066zm9.66 25.201h15.123V716.442h-15.123zm65.668-101.09-33.748 80.79 13.724 5.74 25.487-63.432 25.762 62.451 13.295-5.739-33.605-79.81h30.665v-13.305h-73.367v13.305zm61.47 23.802h-24.087v13.438h24.088v63.85h15.112V716.442h-15.112zm99.753-24.854c-1.725-3.778-4.084-7.076-7.066-9.874-2.9-2.798-6.33-5.013-10.293-6.647-3.972-1.634-8.189-2.45-12.672-2.45-4.482 0-8.7.816-12.672 2.45-3.972 1.634-7.393 3.85-10.292 6.647-2.982 2.798-5.34 6.096-7.067 9.874-1.725 3.779-2.593 7.822-2.593 12.11 0 4.3.868 8.313 2.593 12.04a31.332 31.332 0 0 0 7.067 9.802c2.9 2.798 6.32 5.024 10.292 6.648 3.972 1.644 8.19 2.45 12.672 2.45 4.483 0 8.7-.806 12.672-2.45 3.962-1.624 7.393-3.85 10.293-6.648a31.332 31.332 0 0 0 7.066-9.802c1.726-3.727 2.594-7.74 2.594-12.04 0-4.288-.868-8.331-2.594-12.11m-17.216 24.783c-3.502 3.502-7.73 5.248-12.672 5.248-4.952 0-9.2-1.746-12.743-5.248-3.554-3.503-5.32-7.72-5.32-12.672 0-4.942 1.766-9.19 5.32-12.744 3.543-3.543 7.791-5.32 12.743-5.32 4.942 0 9.17 1.777 12.672 5.32 3.503 3.554 5.249 7.802 5.249 12.744 0 4.952-1.746 9.17-5.249 12.672m43.05 19.952h15.123v-64.544H412.21zm.143 42.009h-65.524v-22.822h65.524zm-80.514 13.02h95.494v-48.728h-95.494zm217.313-79.117v-37.944h-94.096v13.162h78.973v24.782zm-103.061 21.71h112.016v-13.163H446.09zm88.071 44.663h-64.126v-20.167h64.126zm-79.106 13.019h94.096v-46.063h-94.096zm168.576-74.276c-3.543 3.503-7.791 5.249-12.733 5.249-4.953 0-9.18-1.746-12.672-5.249-3.503-3.502-5.26-7.679-5.26-12.529s1.757-9.037 5.26-12.54c3.492-3.491 7.72-5.248 12.672-5.248 4.942 0 9.19 1.757 12.733 5.249 3.553 3.502 5.32 7.689 5.32 12.539s-1.767 9.027-5.32 12.53m17.573-24.436a31.568 31.568 0 0 0-7.066-9.803c-2.992-2.798-6.494-5.013-10.507-6.647-4.013-1.634-8.26-2.45-12.733-2.45-4.483 0-8.73.816-12.744 2.45-4.013 1.634-7.515 3.85-10.507 6.647a31.568 31.568 0 0 0-7.066 9.803c-1.726 3.737-2.594 7.7-2.594 11.906 0 4.197.868 8.169 2.594 11.896a31.332 31.332 0 0 0 7.066 9.803c2.992 2.798 6.494 5.024 10.507 6.647 4.013 1.644 8.26 2.45 12.744 2.45 4.472 0 8.72-.806 12.733-2.45 4.013-1.623 7.515-3.85 10.507-6.647a31.332 31.332 0 0 0 7.066-9.803c1.726-3.727 2.594-7.7 2.594-11.896 0-4.207-.868-8.169-2.594-11.906m10.998 50.412h-81.077v13.438h32.35v33.043h15.122V801.43h33.605zm9.66 50.402h15.122V716.442h-15.123zm85.752-84.293c-3.124 2.992-6.83 4.483-11.13 4.483-4.288 0-8.005-1.49-11.13-4.483-3.124-2.981-4.687-6.627-4.687-10.915 0-4.3 1.563-7.934 4.687-10.926 3.125-2.982 6.842-4.483 11.13-4.483 4.3 0 8.006 1.501 11.13 4.483 3.135 2.992 4.697 6.627 4.697 10.926 0 4.288-1.562 7.934-4.697 10.915m16.95-21.913a31.32 31.32 0 0 0-6.514-9.026c-2.798-2.522-6.045-4.524-9.731-6.025-3.686-1.49-7.628-2.236-11.835-2.236-4.197 0-8.138.745-11.824 2.236-3.697 1.501-6.934 3.503-9.731 6.025a31.127 31.127 0 0 0-6.515 9.026c-1.634 3.41-2.45 7.077-2.45 10.998 0 3.92.816 7.587 2.45 10.987a31.037 31.037 0 0 0 6.515 9.037c2.797 2.512 6.034 4.523 9.73 6.014 3.687 1.501 7.628 2.247 11.825 2.247 4.207 0 8.149-.746 11.835-2.247 3.686-1.49 6.933-3.502 9.731-6.014a31.228 31.228 0 0 0 6.515-9.037c1.623-3.4 2.45-7.066 2.45-10.987 0-3.921-.827-7.587-2.45-10.998m13.223 44.174h-81.066v13.305h33.605v18.482h15.123v-18.482h32.338zm9.67-24.915h-16.95v13.162h16.95v44.939h15.113v-93.105h-15.113zm16.522 84.844v-13.162h-83.874v-21.699h-15.123v34.86zm20.861-107.666v13.019h74.48v-13.02h-28.979v-13.029h-16.379v13.03zm48.095 52.924c-2.941 2.89-6.515 4.34-10.712 4.34-4.207 0-7.75-1.45-10.64-4.34-2.9-2.89-4.35-6.351-4.35-10.364 0-4.013 1.45-7.465 4.35-10.365 2.89-2.89 6.433-4.34 10.64-4.34 4.197 0 7.77 1.45 10.712 4.34 2.94 2.9 4.41 6.352 4.41 10.365s-1.47 7.474-4.41 10.364m16.797-21.004a27.801 27.801 0 0 0-6.372-8.823c-2.706-2.522-5.881-4.482-9.517-5.881-3.645-1.4-7.515-2.094-11.62-2.094-4.115 0-7.985.695-11.62 2.094-3.646 1.399-6.821 3.36-9.527 5.881a27.8 27.8 0 0 0-6.372 8.823c-1.542 3.36-2.308 6.913-2.308 10.64 0 3.737.766 7.28 2.308 10.64a27.8 27.8 0 0 0 6.372 8.822c2.706 2.522 5.881 4.483 9.527 5.882 1.205.47 2.563.888 4.054 1.256v15.408h-32.339v13.295h81.066v-13.295H869.78v-15.408a33.676 33.676 0 0 0 4.064-1.256c3.636-1.4 6.811-3.36 9.517-5.882a27.801 27.801 0 0 0 6.372-8.822c1.542-3.36 2.308-6.903 2.308-10.64 0-3.727-.766-7.28-2.308-10.64m23.312 77.85h15.123V716.441h-15.123z" style="stroke-width:10.2111" transform="translate(337.215 -588.465)"/><path fill="#083f67" d="M-55.152 767.954c-19.81-13.479-45.205-7.975-58.53 12.284-11.13 16.93-27.938 19.033-34.442 19.033-21.209 0-35.719-14.918-40.018-30.357h-.02l-.112-.43-.133-.52c-1.695-6.443-2.114-9.527-2.114-16.368 0-36.914 37.873-78.013 92.421-78.013 55.865 0 87.826 42.529 96.056 66.158l-.408-1.256c-15.858-46.216-59.694-79.453-111.291-79.453-64.943 0-117.622 52.648-117.622 117.612 0 58.07 41.886 107.768 99.977 107.768 46.328 0 77.472-25.977 91.757-61.778 7.822-19.574 2.287-42.59-15.52-54.68" style="stroke-width:10.2111" transform="translate(337.215 -588.465)"/><path fill="#ee2540" d="M-1.307 742.034c-6.872-23.047-39.078-68.445-96.79-68.445-54.549 0-92.422 41.1-92.422 78.003 0 6.851.419 9.925 2.104 16.368-.705-2.818-1.083-5.637-1.083-8.394 0-38.434 38.496-65.075 78.064-65.075 53.568 0 96.986 43.418 96.986 96.975 0 41.988-24.16 78.32-59.276 95.79l.02.02C-28.447 870.889 3.86 827.553 3.86 776.65c0-12.049-1.613-22.668-5.167-34.615" style="stroke-width:10.2111" transform="translate(337.215 -588.465)"/></svg>